<?xml version="1.0" encoding="utf-8"?>
<!-- Generator: Adobe Illustrator 18.1.0, SVG Export Plug-In . SVG Version: 6.00 Build 0)  -->
<svg version="1.1" id="Calque_1" xmlns="http://www.w3.org/2000/svg" xmlns:xlink="http://www.w3.org/1999/xlink" x="0px" y="0px"
	 viewBox="0 0 62 59.5" enable-background="new 0 0 62 59.5" xml:space="preserve">
<g>
	<path id="favorite-3-icon_1_" fill="none" stroke="#000000" stroke-width="2" stroke-linejoin="round" stroke-miterlimit="10" d="
		M31,57.3C9.8,36.7,3.8,29.1,2.6,21.3C1,11.8,8,2.3,19.1,2.3c4.7,0,9,1.8,11.9,4.8c2.9-3,7.2-4.8,11.9-4.8c11,0,18.1,9.4,16.5,19
		C58.1,28.9,52.5,36.2,31,57.3z M19.1,7.9c-4.4,0-8.2,2.2-10,6C4.3,23.5,14.9,33.3,31,49.3C47,33.2,57.6,23.5,52.9,13.9
		c-1.8-3.8-5.6-6-10-6c-7.2,0-10.2,5.6-11.9,8.3C29.4,13.7,26.6,7.9,19.1,7.9z"/>
</g>
</svg>
