<?xml version="1.0" encoding="utf-8"?>
<!-- Generator: Adobe Illustrator 16.0.0, SVG Export Plug-In . SVG Version: 6.00 Build 0)  -->
<!DOCTYPE svg PUBLIC "-//W3C//DTD SVG 1.1//EN" "http://www.w3.org/Graphics/SVG/1.1/DTD/svg11.dtd">
<svg version="1.1" id="Calque_1" xmlns="http://www.w3.org/2000/svg" xmlns:xlink="http://www.w3.org/1999/xlink" x="0px" y="0px"
	 width="32.506px" height="29px" viewBox="625.831 328.62 32.506 29" enable-background="new 625.831 328.62 32.506 29"
	 xml:space="preserve">
<g>
	<path d="M642.054,357.619c-0.979,0-1.894-0.392-2.612-1.11l-0.457-0.457c-9.405-9.405-15.61-15.675-12.214-22.599
		c1.372-3.005,4.376-4.833,8.034-4.833c3.723,0,5.944,1.829,7.315,3.527c1.503-1.829,3.788-3.527,7.25-3.527
		c3.527,0,6.532,1.829,8.034,4.898c3.396,6.924-2.874,13.194-12.41,22.73l-0.326,0.326
		C643.949,357.228,643.099,357.619,642.054,357.619z M634.805,331.559c-2.417,0-4.441,1.176-5.356,3.201
		c-2.482,5.029,3.135,10.712,11.626,19.203l0.457,0.457c0.131,0.131,0.327,0.196,0.522,0.196c0.196,0,0.327-0.065,0.522-0.196
		l0.327-0.326c8.621-8.622,14.304-14.304,11.822-19.333c-0.98-2.025-2.939-3.201-5.356-3.201c-3.135,0-4.833,1.959-6.074,3.854
		l-1.241,1.959l-1.24-1.959C639.573,333.388,637.94,331.559,634.805,331.559z"/>
</g>
</svg>
