<?xml version="1.0" encoding="utf-8"?>
<!-- Generator: Adobe Illustrator 18.1.0, SVG Export Plug-In . SVG Version: 6.00 Build 0)  -->
<svg version="1.1" id="Calque_1" xmlns="http://www.w3.org/2000/svg" xmlns:xlink="http://www.w3.org/1999/xlink" x="0px" y="0px"
	 viewBox="0 0 50 50" enable-background="new 0 0 50 50" xml:space="preserve">
<g>
	<path d="M25.1,47c-1.5,0-2.9-0.6-4-1.7l-0.7-0.7C6,30.2-3.5,20.6,1.7,10C3.8,5.4,8.4,2.6,14,2.6c5.7,0,9.1,2.8,11.2,5.4
		c2.3-2.8,5.8-5.4,11.1-5.4c5.4,0,10,2.8,12.3,7.5c5.2,10.6-4.4,20.2-19,34.8l-0.5,0.5C28,46.4,26.7,47,25.1,47z M14,7.1
		c-3.7,0-6.8,1.8-8.2,4.9C2,19.7,10.6,28.4,23.6,41.4l0.7,0.7c0.2,0.2,0.5,0.3,0.8,0.3s0.5-0.1,0.8-0.3l0.5-0.5
		C39.6,28.4,48.3,19.7,44.5,12C43,8.9,40,7.1,36.3,7.1c-4.8,0-7.4,3-9.3,5.9l-1.9,3l-1.9-3C21.3,9.9,18.8,7.1,14,7.1z"/>
</g>
</svg>
