<?xml version="1.0" encoding="utf-8"?>
<!-- Generator: Adobe Illustrator 17.1.0, SVG Export Plug-In . SVG Version: 6.00 Build 0)  -->
<!DOCTYPE svg PUBLIC "-//W3C//DTD SVG 1.1//EN" "http://www.w3.org/Graphics/SVG/1.1/DTD/svg11.dtd">
<svg version="1.1" id="Layer_1" xmlns="http://www.w3.org/2000/svg" xmlns:xlink="http://www.w3.org/1999/xlink" x="0px" y="0px"
	 viewBox="0 0 39.7 40" enable-background="new 0 0 39.7 40" xml:space="preserve">
<g>
	<g>
		<path d="M17.1,40C17.1,40,17.1,40,17.1,40c-1.1,0-2-0.9-2-2V20.5c0-0.4-0.1-0.8-0.4-1L0.7,4.4C0,3.6-0.2,2.5,0.2,1.6
			C0.6,0.6,1.6,0,2.6,0h34.5c1,0,2,0.6,2.4,1.6c0.4,1,0.2,2-0.5,2.8L25,19.5c-0.3,0.3-0.4,0.7-0.4,1v10.8c0,1-0.5,1.6-1.1,2.3
			l-0.1,0.1l-4.9,5.6C18.1,39.8,17.6,40,17.1,40z M2.6,1.6C2,1.6,1.8,2.1,1.7,2.2c-0.1,0.1-0.2,0.6,0.2,1l14,15.1
			c0.5,0.6,0.8,1.4,0.8,2.2V38c0,0.3,0.2,0.4,0.4,0.4l0,0c0.1,0,0.2,0,0.2-0.1l4.9-5.7c0.6-0.7,0.7-0.9,0.7-1.3V20.6
			c0-0.8,0.3-1.6,0.8-2.2l14-15.2c0.4-0.4,0.2-0.9,0.2-1c-0.1-0.1-0.3-0.6-0.9-0.6H2.6z"/>
	</g>
</g>
</svg>
