<?xml version="1.0" encoding="utf-8"?>
<!-- Generator: Adobe Illustrator 16.0.0, SVG Export Plug-In . SVG Version: 6.00 Build 0)  -->
<!DOCTYPE svg PUBLIC "-//W3C//DTD SVG 1.1//EN" "http://www.w3.org/Graphics/SVG/1.1/DTD/svg11.dtd">
<svg version="1.1" id="Layer_1" xmlns="http://www.w3.org/2000/svg" xmlns:xlink="http://www.w3.org/1999/xlink" x="0px" y="0px"
	 width="32.212px" height="28.634px" viewBox="0 0 32.212 28.634" enable-background="new 0 0 32.212 28.634" xml:space="preserve">
<g id="Page-1" sketch:type="MSPage">
	<g id="Adjust">
		<path sketch:type="MSShapeGroup" fill="#50B2E5" d="M10.682,14.999c-0.319,1.935-1.976,3.408-3.971,3.408S3.06,16.934,2.74,14.999
			h-2.06C0.309,14.999,0,14.693,0,14.316c0-0.379,0.305-0.681,0.681-0.681h2.06c0.319-1.936,1.976-3.409,3.971-3.409
			s3.651,1.474,3.971,3.409h20.851c0.372,0,0.68,0.305,0.68,0.681c0,0.38-0.304,0.683-0.68,0.683H10.682L10.682,14.999z
			 M20.859,25.225H0.681C0.309,25.225,0,24.92,0,24.543c0-0.379,0.305-0.682,0.681-0.682h20.179
			c0.319-1.935,1.976-3.408,3.971-3.408s3.651,1.474,3.972,3.408h2.73c0.372,0,0.68,0.305,0.68,0.682
			c0,0.379-0.304,0.682-0.68,0.682h-2.73c-0.32,1.935-1.977,3.409-3.972,3.409S21.179,27.159,20.859,25.225L20.859,25.225z
			 M14.148,4.772H0.681C0.309,4.772,0,4.468,0,4.091c0-0.379,0.305-0.682,0.681-0.682h13.468C14.468,1.475,16.124,0,18.119,0
			s3.651,1.475,3.972,3.409h9.441c0.372,0,0.68,0.305,0.68,0.682c0,0.379-0.304,0.682-0.68,0.682h-9.441
			c-0.32,1.935-1.977,3.409-3.972,3.409S14.468,6.707,14.148,4.772L14.148,4.772z M18.119,6.817c1.482,0,2.685-1.221,2.685-2.727
			s-1.202-2.727-2.685-2.727s-2.685,1.221-2.685,2.727S16.637,6.817,18.119,6.817z M24.83,27.27c1.482,0,2.685-1.221,2.685-2.727
			s-1.202-2.727-2.685-2.727s-2.684,1.221-2.684,2.727S23.348,27.27,24.83,27.27z M6.711,17.044c1.482,0,2.685-1.221,2.685-2.728
			c0-1.506-1.202-2.727-2.685-2.727s-2.684,1.221-2.684,2.727C4.027,15.823,5.229,17.044,6.711,17.044z"/>
	</g>
</g>
</svg>
