<svg xmlns="http://www.w3.org/2000/svg" xmlns:xlink="http://www.w3.org/1999/xlink" xmlns:sketch="http://www.bohemiancoding.com/sketch/ns" width="100px" height="100px" viewBox="5.0 -10.0 100.0 135.0" version="1.1">
    <!-- Generator: Sketch Beta 3.1 (8603) - http://www.bohemiancoding.com/sketch -->
    <title>Slice 2</title>
    <desc>Created with Sketch Beta.</desc>
    <defs/>
    <g id="Page-1" stroke="none" stroke-width="1" fill="none" fill-rule="evenodd" sketch:type="MSPage">
        <path d="M34.8444529,51.9047619 C33.9518065,57.3099302 29.324368,61.4285714 23.75,61.4285714 C18.175632,61.4285714 13.5481935,57.3099302 12.6555471,51.9047619 L6.90054321,51.9047619 C5.86190054,51.9047619 5,51.051971 5,50 C5,48.9406949 5.85090218,48.0952381 6.90054321,48.0952381 L12.6555471,48.0952381 C13.5481935,42.6900698 18.175632,38.5714286 23.75,38.5714286 C29.324368,38.5714286 33.9518065,42.6900698 34.8444529,48.0952381 L93.0994568,48.0952381 C94.1380995,48.0952381 95,48.948029 95,50 C95,51.0593051 94.1490978,51.9047619 93.0994568,51.9047619 L34.8444529,51.9047619 L34.8444529,51.9047619 Z M63.2805471,80.4761905 L6.90054321,80.4761905 C5.86190054,80.4761905 5,79.6233995 5,78.5714286 C5,77.5121235 5.85090218,76.6666667 6.90054321,76.6666667 L63.2805471,76.6666667 C64.1731935,71.2614984 68.800632,67.1428571 74.375,67.1428571 C79.949368,67.1428571 84.5768065,71.2614984 85.4694529,76.6666667 L93.0994568,76.6666667 C94.1380995,76.6666667 95,77.5194576 95,78.5714286 C95,79.6307337 94.1490978,80.4761905 93.0994568,80.4761905 L85.4694529,80.4761905 C84.5768065,85.8813587 79.949368,90 74.375,90 C68.800632,90 64.1731935,85.8813587 63.2805471,80.4761905 L63.2805471,80.4761905 Z M44.5305471,23.3333333 L6.90054321,23.3333333 C5.86190054,23.3333333 5,22.4805424 5,21.4285714 C5,20.3692663 5.85090218,19.5238095 6.90054321,19.5238095 L44.5305471,19.5238095 C45.4231935,14.1186413 50.050632,10 55.625,10 C61.199368,10 65.8268065,14.1186413 66.7194529,19.5238095 L93.0994568,19.5238095 C94.1380995,19.5238095 95,20.3766005 95,21.4285714 C95,22.4878765 94.1490978,23.3333333 93.0994568,23.3333333 L66.7194529,23.3333333 C65.8268065,28.7385016 61.199368,32.8571429 55.625,32.8571429 C50.050632,32.8571429 45.4231935,28.7385016 44.5305471,23.3333333 L44.5305471,23.3333333 Z M55.625,29.047619 C59.7671356,29.047619 63.125,25.6364552 63.125,21.4285714 C63.125,17.2206876 59.7671356,13.8095238 55.625,13.8095238 C51.4828644,13.8095238 48.125,17.2206876 48.125,21.4285714 C48.125,25.6364552 51.4828644,29.047619 55.625,29.047619 Z M74.375,86.1904762 C78.5171356,86.1904762 81.875,82.7793124 81.875,78.5714286 C81.875,74.3635448 78.5171356,70.952381 74.375,70.952381 C70.2328644,70.952381 66.875,74.3635448 66.875,78.5714286 C66.875,82.7793124 70.2328644,86.1904762 74.375,86.1904762 Z M23.75,57.6190476 C27.8921356,57.6190476 31.25,54.2078838 31.25,50 C31.25,45.7921162 27.8921356,42.3809524 23.75,42.3809524 C19.6078644,42.3809524 16.25,45.7921162 16.25,50 C16.25,54.2078838 19.6078644,57.6190476 23.75,57.6190476 Z" id="Adjust" fill="#000000" sketch:type="MSShapeGroup"/>
    </g>
<text x="0.0" y="117.5" font-size="5.0" font-weight="bold" font-family="Helvetica Neue, Helvetica, Arial-Unicode, Arial, Sans-serif" fill="#000000">Created by Heberti Almeida</text><text x="0.0" y="122.5" font-size="5.0" font-weight="bold" font-family="Helvetica Neue, Helvetica, Arial-Unicode, Arial, Sans-serif" fill="#000000">from the Noun Project</text></svg>