<?xml version="1.0" encoding="utf-8"?>
<!-- Generator: Adobe Illustrator 18.1.0, SVG Export Plug-In . SVG Version: 6.00 Build 0)  -->
<svg version="1.1" id="Layer_1" xmlns="http://www.w3.org/2000/svg" xmlns:xlink="http://www.w3.org/1999/xlink" x="0px" y="0px"
	 viewBox="5 8.6 40.7 32.9" enable-background="new 5 8.6 40.7 32.9" xml:space="preserve">
<path d="M42.5,15.6H18.3c-1.7,0-3.2-1.3-3.2-3v-0.1c0-1.6,1.4-3,3.2-3h24.2c1.7,0,3.2,1.3,3.2,3v0.1C45.7,14.2,44.3,15.6,42.5,15.6z
	"/>
<path d="M42.5,27.9H18.3c-1.7,0-3.2-1.4-3.2-3.2l0,0c0-1.7,1.4-3.2,3.2-3.2h24.2c1.7,0,3.2,1.4,3.2,3.2l0,0
	C45.7,26.6,44.3,27.9,42.5,27.9z"/>
<path d="M42.5,40.4H18.3c-1.7,0-3.2-1.3-3.2-2.9v-0.1c0-1.6,1.4-2.9,3.2-2.9h24.2c1.7,0,3.2,1.3,3.2,2.9v0.1
	C45.7,39.2,44.3,40.4,42.5,40.4z"/>
<path d="M8.5,16.5L8.5,16.5C6.6,16.5,5,15,5,13v-0.9c0-2,1.6-3.5,3.5-3.5h0.1c2,0,3.5,1.6,3.5,3.5v1C12.1,15,10.5,16.5,8.5,16.5z"/>
<path d="M8.5,28.9L8.5,28.9c-2,0-3.5-1.6-3.5-3.5v-1c0-2,1.6-3.5,3.5-3.5h0.1c2,0,3.5,1.6,3.5,3.5v1C12.1,27.4,10.5,28.9,8.5,28.9z"
	/>
<path d="M8.5,41.4L8.5,41.4c-2,0-3.5-1.6-3.5-3.5v-1c0-2,1.6-3.5,3.5-3.5h0.1c2,0,3.5,1.6,3.5,3.5v1C12.1,39.9,10.5,41.4,8.5,41.4z"
	/>
</svg>
