<?xml version="1.0" encoding="utf-8"?>
<!-- Generator: Adobe Illustrator 16.0.0, SVG Export Plug-In . SVG Version: 6.00 Build 0)  -->
<!DOCTYPE svg PUBLIC "-//W3C//DTD SVG 1.1//EN" "http://www.w3.org/Graphics/SVG/1.1/DTD/svg11.dtd">
<svg version="1.1" id="Layer_1" xmlns="http://www.w3.org/2000/svg" xmlns:xlink="http://www.w3.org/1999/xlink" x="0px" y="0px"
	 width="116.042px" height="27.96px" viewBox="0 0 116.042 27.96" enable-background="new 0 0 116.042 27.96" xml:space="preserve">
<g>
	<path fill="#4FBA6F" d="M10.28,11.52H2c-0.507,0-0.967-0.16-1.38-0.48C0.206,10.72,0,10.24,0,9.6c0-0.693,0.206-1.206,0.62-1.54
		C1.033,7.727,1.493,7.56,2,7.56h12.68c0.507,0,0.96,0.167,1.36,0.5c0.4,0.334,0.6,0.847,0.6,1.54c0,0.56-0.174,1.014-0.52,1.36
		L16.16,11L6.44,23.6h9.119c0.507,0,0.961,0.167,1.36,0.5c0.399,0.333,0.601,0.847,0.601,1.54c0,0.64-0.201,1.12-0.601,1.44
		s-0.854,0.48-1.36,0.48H2c-0.507,0-0.967-0.16-1.38-0.48C0.206,26.76,0,26.28,0,25.64s0.187-1.146,0.56-1.52L10.28,11.52z"/>
	<path fill="#3C97D3" d="M22.841,1.864c0-0.476,0.219-0.905,0.659-1.289C23.94,0.192,24.521,0,25.24,0
		c0.692,0,1.246,0.192,1.659,0.575c0.414,0.384,0.621,0.813,0.621,1.289v0.952c0,0.476-0.207,0.906-0.621,1.289
		C26.486,4.489,25.933,4.68,25.24,4.68c-0.72,0-1.3-0.191-1.74-0.575c-0.44-0.383-0.659-0.813-0.659-1.289V1.864z M22.841,9.04
		c0-0.48,0.219-0.913,0.659-1.3c0.44-0.386,1.021-0.58,1.74-0.58c0.692,0,1.246,0.194,1.659,0.58c0.414,0.387,0.621,0.82,0.621,1.3
		v17.04c0,0.48-0.207,0.914-0.621,1.3c-0.413,0.386-0.967,0.58-1.659,0.58c-0.72,0-1.3-0.194-1.74-0.58s-0.659-0.82-0.659-1.3V9.04z
		"/>
	<path fill="#E64D3C" d="M42.399,7.16c1.467,0,2.754,0.2,3.86,0.6c1.106,0.4,2.033,0.967,2.78,1.7c0.746,0.734,1.307,1.62,1.68,2.66
		s0.561,2.187,0.561,3.44v10.52c0,0.48-0.228,0.914-0.681,1.3c-0.454,0.386-1.026,0.58-1.72,0.58s-1.254-0.194-1.68-0.58
		c-0.428-0.386-0.641-0.82-0.641-1.3V15.8c0-1.466-0.394-2.546-1.18-3.24c-0.787-0.693-1.78-1.04-2.98-1.04
		c-1.199,0-2.199,0.347-3,1.04c-0.8,0.694-1.199,1.774-1.199,3.24v10.28c0,0.48-0.207,0.914-0.621,1.3
		c-0.413,0.386-0.967,0.58-1.659,0.58c-0.72,0-1.3-0.194-1.74-0.58s-0.66-0.82-0.66-1.3V15.96c0-1.253,0.187-2.42,0.56-3.5
		s0.934-2.013,1.681-2.8c0.746-0.786,1.673-1.4,2.78-1.84C39.646,7.38,40.933,7.16,42.399,7.16z"/>
	<path fill="#965BA5" d="M59.239,3.76c0-0.854,0.254-1.446,0.76-1.78c0.507-0.333,1.066-0.5,1.681-0.5c0.586,0,1.086,0.127,1.5,0.38
		c0.413,0.254,0.62,0.767,0.62,1.54c0,1.867-0.334,3.5-1,4.9c-0.667,1.4-1.814,2.54-3.44,3.42c-0.693,0.267-1.286,0.3-1.78,0.1
		c-0.493-0.2-0.84-0.5-1.039-0.9c-0.201-0.4-0.228-0.846-0.08-1.34c0.146-0.493,0.525-0.913,1.14-1.26
		c0.692-0.453,1.14-1.093,1.34-1.92C59.14,5.574,59.239,4.694,59.239,3.76z"/>
	<path fill="#F4CA1B" d="M68.204,15.88c0-1.2,0.166-2.326,0.5-3.38c0.332-1.053,0.859-1.98,1.579-2.78
		c0.72-0.8,1.64-1.426,2.761-1.88c1.119-0.453,2.465-0.68,4.039-0.68c1.361,0,2.533,0.18,3.52,0.54c0.986,0.36,1.787,0.847,2.4,1.46
		c0.348,0.347,0.533,0.78,0.561,1.3c0.025,0.52-0.088,0.98-0.34,1.38c-0.254,0.4-0.641,0.68-1.16,0.84
		c-0.52,0.16-1.154,0.054-1.9-0.32c-0.4-0.213-0.84-0.406-1.32-0.58c-0.479-0.173-1.066-0.26-1.76-0.26
		c-1.387,0-2.426,0.414-3.119,1.24c-0.694,0.827-1.041,1.947-1.041,3.36V19c0,1.414,0.347,2.534,1.041,3.36
		c0.693,0.827,1.732,1.24,3.119,1.24c0.693,0,1.32-0.073,1.881-0.22c0.559-0.146,1-0.313,1.32-0.5c0.559-0.293,1.086-0.393,1.58-0.3
		c0.492,0.094,0.885,0.307,1.18,0.64c0.293,0.333,0.465,0.733,0.52,1.2c0.053,0.467-0.094,0.94-0.439,1.42
		c-0.508,0.694-1.314,1.22-2.42,1.58c-1.107,0.36-2.314,0.54-3.621,0.54c-1.574,0-2.92-0.227-4.039-0.68
		c-1.121-0.453-2.041-1.08-2.761-1.88c-0.72-0.8-1.247-1.726-1.579-2.78c-0.334-1.053-0.5-2.18-0.5-3.38V15.88z"/>
	<path fill="#29B99A" d="M96.483,27.96c-1.467,0-2.754-0.22-3.859-0.66c-1.107-0.44-2.035-1.053-2.781-1.84
		c-0.746-0.786-1.307-1.72-1.68-2.8s-0.561-2.247-0.561-3.5V9.08c0-0.48,0.221-0.913,0.66-1.3c0.441-0.386,1.021-0.58,1.74-0.58
		c0.693,0,1.246,0.194,1.66,0.58c0.414,0.387,0.621,0.82,0.621,1.3v10.24c0,1.467,0.398,2.547,1.199,3.24
		c0.801,0.694,1.801,1.04,3,1.04s2.193-0.346,2.98-1.04c0.785-0.693,1.18-1.773,1.18-3.24V9.08c0-0.48,0.213-0.913,0.641-1.3
		c0.426-0.386,0.984-0.58,1.68-0.58c0.693,0,1.266,0.194,1.719,0.58c0.453,0.387,0.68,0.82,0.68,1.3v10.08
		c0,1.253-0.186,2.42-0.559,3.5c-0.375,1.08-0.934,2.014-1.68,2.8c-0.748,0.787-1.674,1.4-2.781,1.84
		C99.237,27.74,97.95,27.96,96.483,27.96z"/>
	<path fill="#3C97D3" d="M111.362,1.864c0-0.476,0.221-0.905,0.66-1.289c0.439-0.383,1.02-0.575,1.74-0.575
		c0.693,0,1.246,0.192,1.66,0.575c0.412,0.384,0.619,0.813,0.619,1.289v0.952c0,0.476-0.207,0.906-0.619,1.289
		c-0.414,0.384-0.967,0.575-1.66,0.575c-0.721,0-1.301-0.191-1.74-0.575c-0.439-0.383-0.66-0.813-0.66-1.289V1.864z M111.362,9.04
		c0-0.48,0.221-0.913,0.66-1.3c0.439-0.386,1.02-0.58,1.74-0.58c0.693,0,1.246,0.194,1.66,0.58c0.412,0.387,0.619,0.82,0.619,1.3
		v17.04c0,0.48-0.207,0.914-0.619,1.3c-0.414,0.386-0.967,0.58-1.66,0.58c-0.721,0-1.301-0.194-1.74-0.58s-0.66-0.82-0.66-1.3V9.04z
		"/>
</g>
</svg>
