<?xml version="1.0" encoding="utf-8"?>
<!-- Generator: Adobe Illustrator 17.1.0, SVG Export Plug-In . SVG Version: 6.00 Build 0)  -->
<!DOCTYPE svg PUBLIC "-//W3C//DTD SVG 1.1//EN" "http://www.w3.org/Graphics/SVG/1.1/DTD/svg11.dtd">
<svg version="1.1" id="Layer_1" xmlns="http://www.w3.org/2000/svg" xmlns:xlink="http://www.w3.org/1999/xlink" x="0px" y="0px"
	 viewBox="0 0 35 40" enable-background="new 0 0 35 40" xml:space="preserve">
<path d="M28.8,40c2.1,0,3.8-1.6,4-3.6L35,9.6c0.1-1.2-0.9-2.3-2.1-2.3h0c-1.1,0-2,0.8-2.1,1.9l-2,27.1l-23.3,0L4.2,9.3
	c-0.1-1.1-1-2-2.1-2h0C0.9,7.3,0,8.2,0,9.6l1.7,26.7c0.1,2.1,1.9,3.7,4,3.7H28.8z"/>
<path d="M2.1,0H33c1.2,0,2.1,1,2,2.2v0.1c0,1.1-0.9,2-2,2l-30.8,0C1,4.3,0,3.3,0,2.2v0C0,1,0.9,0,2.1,0z"/>
<path d="M10.5,12L10.5,12c0.9,0,1.5,0.7,1.5,1.6l-0.5,16.3c0,0.8-0.7,1.5-1.6,1.5l0,0c-0.8,0-1.5-0.7-1.5-1.6l0.5-16.3
	C8.9,12.6,9.6,12,10.5,12z"/>
<path d="M16.9,12L16.9,12c0.9,0,1.6,0.7,1.6,1.5v16.3c0,0.8-0.7,1.5-1.5,1.5h0c-0.8,0-1.5-0.7-1.5-1.5V13.5
	C15.4,12.7,16.1,12,16.9,12z"/>
<path d="M23.5,12L23.5,12c0.9,0,1.6,0.6,1.6,1.5l0.6,16.3c0,0.8-0.6,1.6-1.5,1.6l0,0c-0.8,0-1.6-0.6-1.6-1.5L22,13.6
	C22,12.7,22.6,12,23.5,12z"/>
</svg>
