<?xml version="1.0" encoding="utf-8"?>
<!-- Generator: Adobe Illustrator 16.0.0, SVG Export Plug-In . SVG Version: 6.00 Build 0)  -->
<!DOCTYPE svg PUBLIC "-//W3C//DTD SVG 1.1//EN" "http://www.w3.org/Graphics/SVG/1.1/DTD/svg11.dtd">
<svg version="1.1" id="Layer_1" xmlns="http://www.w3.org/2000/svg" xmlns:xlink="http://www.w3.org/1999/xlink" x="0px" y="0px"
	 width="25.381px" height="29px" viewBox="627.378 345.5 25.381 29" enable-background="new 627.378 345.5 25.381 29"
	 xml:space="preserve">
<path d="M648.258,374.5c1.522,0,2.756-1.16,2.9-2.61l1.595-19.43c0.073-0.87-0.652-1.667-1.522-1.667l0,0
	c-0.797,0-1.45,0.58-1.522,1.377l-1.45,19.647h-16.892l-0.942-19.575c-0.073-0.798-0.725-1.45-1.523-1.45l0,0
	c-0.87,0-1.522,0.652-1.522,1.667l1.233,19.357c0.072,1.522,1.377,2.683,2.9,2.683H648.258L648.258,374.5z"/>
<path d="M628.9,345.5h22.402c0.87,0,1.523,0.725,1.45,1.595v0.073c0,0.797-0.652,1.45-1.45,1.45h-22.33
	c-0.87,0-1.595-0.725-1.595-1.523l0,0C627.378,346.225,628.031,345.5,628.9,345.5z"/>
<path d="M634.99,354.2L634.99,354.2c0.652,0,1.087,0.507,1.087,1.16l-0.362,11.818c0,0.58-0.508,1.087-1.16,1.087l0,0
	c-0.58,0-1.087-0.507-1.087-1.159l0.362-11.818C633.83,354.635,634.338,354.2,634.99,354.2z"/>
<path d="M639.631,354.2L639.631,354.2c0.652,0,1.16,0.507,1.16,1.087v11.818c0,0.579-0.508,1.087-1.088,1.087l0,0
	c-0.58,0-1.087-0.508-1.087-1.087v-11.818C638.543,354.708,639.051,354.2,639.631,354.2z"/>
<path d="M644.416,354.2L644.416,354.2c0.652,0,1.159,0.435,1.159,1.087l0.436,11.818c0,0.579-0.436,1.159-1.088,1.159l0,0
	c-0.58,0-1.16-0.435-1.16-1.087l-0.435-11.818C643.328,354.708,643.762,354.2,644.416,354.2z"/>
</svg>
