<?xml version="1.0" encoding="utf-8"?>
<!-- Generator: Adobe Illustrator 17.1.0, SVG Export Plug-In . SVG Version: 6.00 Build 0)  -->
<!DOCTYPE svg PUBLIC "-//W3C//DTD SVG 1.1//EN" "http://www.w3.org/Graphics/SVG/1.1/DTD/svg11.dtd">
<svg version="1.1" id="Layer_1" xmlns="http://www.w3.org/2000/svg" xmlns:xlink="http://www.w3.org/1999/xlink" x="0px" y="0px"
	 viewBox="0 0 32 31.3" enable-background="new 0 0 32 31.3" xml:space="preserve">
<g>
	<path fill="#010202" d="M28.8,3.2c-1-1-2.3-1.8-3.6-2.4C23.8,0.3,22.4,0,21,0c-1.4,0-2.9,0.3-4.2,0.8c-1.4,0.6-2.6,1.4-3.7,2.5
		c-1.6,1.6-2.6,3.6-3,5.8c-0.1,0.3-0.4,1.7-0.9,3.2c-0.9,2.9-1.4,4.1-1.6,4.5c-0.3,0.6-0.5,1.3-0.4,2c0,0.3,0.1,0.5,0.2,0.8
		l-3.6,3.6c-0.1,0-0.2,0-0.3,0c-0.8,0-1.6,0.3-2.2,0.8c-0.7,0.5-1.1,1.3-1.3,2.1C0,26.5,0,27,0.1,27.4c0.2,0.7,0.5,1.4,1,1.9
		C1.4,29.6,1.7,29.8,2,30c0.2,0.3,0.4,0.7,0.7,0.9c0.5,0.5,1.2,0.9,1.9,1C4.8,32,5,32,5.2,32c0.2,0,0.4,0,0.7-0.1
		c0.5-0.1,1-0.3,1.5-0.7c0.4-0.3,0.8-0.7,1-1.2c0.3-0.6,0.4-1.3,0.4-1.9l3.6-3.6c0.4,0.2,0.8,0.2,1.2,0.2c0.6,0,1.1-0.1,1.6-0.4
		c0.4-0.2,1.6-0.8,4.5-1.6c1.5-0.4,2.8-0.8,3.2-0.9c1.1-0.2,2.1-0.5,3.1-1c1-0.5,2-1.2,2.8-2c1.1-1.1,1.9-2.3,2.4-3.6
		c0.5-1.3,0.8-2.7,0.8-4.1c0-1.4-0.3-2.8-0.8-4.1C30.6,5.5,29.8,4.2,28.8,3.2z M22.4,19.6c0,0-4.8,1.2-7.4,2.3
		c-0.3,0.1-0.7,0.3-0.9,0.4c-0.2,0.1-0.3,0.1-0.5,0.1c-0.3,0-0.5-0.1-0.7-0.3l-0.7-0.7l-0.8-0.8l-0.8-0.8l-0.7-0.7
		c-0.3-0.3-0.4-0.8-0.2-1.2c0.1-0.3,0.3-0.6,0.4-0.9c1.1-2.6,2.3-7.5,2.3-7.5l0,0c0.3-1.7,1.1-3.4,2.4-4.7c1.7-1.7,4-2.6,6.2-2.6
		c2.2,0,4.5,0.8,6.1,2.5c3.4,3.4,3.4,8.9,0,12.3C25.8,18.5,24.2,19.3,22.4,19.6L22.4,19.6z M6.6,27.1c-0.2,0.2-0.3,0.5-0.2,0.8
		c0.3,0.7,0,1.6-1,1.8c-0.1,0-0.1,0-0.2,0c-0.1,0-0.1,0-0.2,0c-0.6-0.1-1-0.6-1.1-1.1c-0.1-0.3-0.3-0.6-0.6-0.6
		c-0.5-0.1-0.9-0.4-1.1-1.1c0-0.1,0-0.2,0-0.3c0.2-0.7,0.7-1.1,1.3-1.1c0.2,0,0.3,0,0.5,0.1c0.1,0,0.2,0.1,0.3,0.1
		c0.2,0,0.4-0.1,0.5-0.2l4-4l0.8,0.8l0.8,0.8L6.6,27.1z"/>
</g>
</svg>
