<?xml version="1.0" encoding="utf-8"?>
<!-- Generator: Adobe Illustrator 18.1.0, SVG Export Plug-In . SVG Version: 6.00 Build 0)  -->
<svg version="1.1" id="Calque_1" xmlns="http://www.w3.org/2000/svg" xmlns:xlink="http://www.w3.org/1999/xlink" x="0px" y="0px"
	 viewBox="0 0 595.3 841.9" enable-background="new 0 0 595.3 841.9" xml:space="preserve">
<g>
	<g id="favorite-3-icon_1_">
		<path d="M25,48L25,48C6.7,30.2,1.3,23.4,0.2,16.6c-0.7-4.1,0.5-8.3,3.2-11.5C6.1,1.8,10.1,0,14.6,0c4,0,7.8,1.5,10.3,4.2
			C27.5,1.5,31.3,0,35.3,0c4.5,0,8.5,1.8,11.3,5.1c2.7,3.2,3.9,7.4,3.2,11.5c-0.5,3.6-2.2,6.9-5.7,11.3C40.5,32.5,34.8,38.5,25,48
			L25,48z M14.6,0.1c-4.5,0-8.4,1.8-11.2,5.1c-2.7,3.2-3.8,7.4-3.2,11.4C1.4,23.4,6.7,30.1,25,47.9c9.8-9.5,15.4-15.5,19-20
			c3.5-4.4,5.1-7.7,5.6-11.3c0.7-4.1-0.5-8.3-3.1-11.5c-2.8-3.2-6.7-5-11.2-5c-4,0-7.8,1.5-10.3,4.2l0,0l0,0
			C22.4,1.6,18.6,0.1,14.6,0.1z M25.1,41.1L25.1,41.1c-0.8-0.8-1.5-1.5-2.2-2.2c-6.5-6.5-11.6-11.6-14.7-16.2
			c-3.4-5-4.1-8.8-2.2-12.6c1.6-3.3,4.9-5.2,8.8-5.2c5.9,0,8.5,4.1,10,6.5c0.2,0.2,0.3,0.5,0.4,0.7c0.1-0.1,0.1-0.2,0.2-0.4
			c1.5-2.4,4.2-6.8,10.1-6.8c3.9,0,7.2,2,8.8,5.2c1.8,3.7,1.1,7.6-2.2,12.5c-3.1,4.6-8.2,9.7-14.6,16.1
			C26.6,39.5,25.9,40.3,25.1,41.1L25.1,41.1z M14.7,4.9c-3.8,0-7.1,1.9-8.7,5.2c-1.8,3.7-1.1,7.6,2.2,12.5
			c3.1,4.6,8.2,9.7,14.7,16.1c0.7,0.7,1.4,1.4,2.2,2.2c0.8-0.8,1.5-1.5,2.3-2.3c6.4-6.4,11.5-11.5,14.6-16.1c3.3-4.9,4-8.7,2.2-12.4
			c-1.6-3.3-4.9-5.2-8.7-5.2c-5.9,0-8.6,4.4-10.1,6.8c-0.1,0.1-0.2,0.3-0.3,0.4l0,0.1l0-0.1c-0.1-0.2-0.3-0.5-0.5-0.8
			C23.1,9,20.5,4.9,14.7,4.9z"/>
	</g>
</g>
</svg>
