<?xml version="1.0" encoding="utf-8"?>
<!-- Generator: Adobe Illustrator 18.1.0, SVG Export Plug-In . SVG Version: 6.00 Build 0)  -->
<svg version="1.1" id="Calque_1" xmlns="http://www.w3.org/2000/svg" xmlns:xlink="http://www.w3.org/1999/xlink" x="0px" y="0px"
	 viewBox="0 0 100 100" enable-background="new 0 0 100 100" xml:space="preserve" class="search">
<g>
	<path id="magnifier-3-icon_1_" fill="none" stroke="#000000" stroke-width="2" stroke-linejoin="round" stroke-miterlimit="10" d="
		M39.5,75.3C19.4,75.3,3,58.9,3,38.7C3,18.6,19.4,2.2,39.5,2.2S76,18.6,76,38.7C76,58.9,59.7,75.3,39.5,75.3z M39.5,14.7
		c-13.3,0-24.1,10.8-24.1,24.1s10.8,24.1,24.1,24.1c13.3,0,24.1-10.8,24.1-24.1S52.8,14.7,39.5,14.7z M76.5,64.4
		c-3.3,4.7-7.4,8.7-12.2,11.9l21.8,21.8l12-12L76.5,64.4z"/>
</g>
</svg>
