<?xml version="1.0" encoding="utf-8"?>
<!-- Generator: Adobe Illustrator 18.1.0, SVG Export Plug-In . SVG Version: 6.00 Build 0)  -->
<svg version="1.1" id="Calque_1" xmlns="http://www.w3.org/2000/svg" xmlns:xlink="http://www.w3.org/1999/xlink" x="0px" y="0px"
	 viewBox="0 0 100 100" enable-background="new 0 0 100 100" xml:space="preserve" class="addtolist">
<g>
	<polygon fill="none" stroke="#000000" stroke-width="2" stroke-linejoin="round" stroke-miterlimit="10" points="90,64 90,57 
		85,57 85,64 78,64 78,70 85,70 85,77 90,77 90,70 97,70 97,64 	"/>
	<g>
		
			<rect x="2" y="56" fill="none" stroke="#000000" stroke-width="2" stroke-linejoin="round" stroke-miterlimit="10" width="12" height="14"/>
		
			<rect x="23" y="34" fill="none" stroke="#000000" stroke-width="2" stroke-linejoin="round" stroke-miterlimit="10" width="65" height="14"/>
		
			<rect x="23" y="12" fill="none" stroke="#000000" stroke-width="2" stroke-linejoin="round" stroke-miterlimit="10" width="65" height="14"/>
		<path fill="none" stroke="#000000" stroke-width="2" stroke-linejoin="round" stroke-miterlimit="10" d="M68.2,68.5
			c0-4.9,2-9.5,5.2-12.5H23v14h45.3C68.2,69,68.2,69,68.2,68.5z"/>
		
			<rect x="2" y="12" fill="none" stroke="#000000" stroke-width="2" stroke-linejoin="round" stroke-miterlimit="10" width="12" height="14"/>
		
			<rect x="2" y="34" fill="none" stroke="#000000" stroke-width="2" stroke-linejoin="round" stroke-miterlimit="10" width="12" height="14"/>
	</g>
</g>
</svg>
