<?xml version="1.0" encoding="utf-8"?>
<!-- Generator: Adobe Illustrator 18.1.0, SVG Export Plug-In . SVG Version: 6.00 Build 0)  -->
<svg version="1.1" id="Calque_1" xmlns="http://www.w3.org/2000/svg" xmlns:xlink="http://www.w3.org/1999/xlink" x="0px" y="0px"
	 viewBox="0 0 100 100" enable-background="new 0 0 100 100" xml:space="preserve">
<g>
	<path id="trash-can-2-icon_1_" fill="none" stroke="#000000" stroke-width="2" stroke-linejoin="round" stroke-miterlimit="10" d="
		M40,32c0-2-1.7-3.7-3.7-3.7c-2,0-3.7,1.7-3.7,3.7v45c0,2,1.7,3.7,3.7,3.7c2,0,3.7-1.7,3.7-3.7V32z M55,32c0-2-1.7-3.7-3.7-3.7
		S47.6,30,47.6,32v45c0,2,1.7,3.7,3.7,3.7S55,79,55,77V32z M70,32c0-2-1.7-3.7-3.7-3.7S62.6,30,62.6,32v45c0,2,1.7,3.7,3.7,3.7
		S70,79,70,77V32z M78.1,88.9H22.8l-3.3-68.9H9.2l4.9,77.5h72.6l6.6-77.5H83.1L78.1,88.9L78.1,88.9z M69.5,2.8c-3.8,0-32.5,0-36.4,0
		H9.7v9.9h83.2V2.8H69.5z"/>
</g>
</svg>
