<?xml version="1.0" encoding="utf-8"?>
<!-- Generator: Adobe Illustrator 18.1.0, SVG Export Plug-In . SVG Version: 6.00 Build 0)  -->
<svg version="1.1" id="Calque_1" xmlns="http://www.w3.org/2000/svg" xmlns:xlink="http://www.w3.org/1999/xlink" x="0px" y="0px"
	 viewBox="0 0 100 100" enable-background="new 0 0 100 100" xml:space="preserve">
<path id="time-4-icon_1_" fill="none" stroke="#000000" stroke-width="2" stroke-linejoin="round" stroke-miterlimit="10" d="
	M53.4,26.7v23.2h20.7v9.3h-30V26.7H53.4z M50.4,2.6c-12.9,0-25.5,5.2-34,13.5L8.3,8L3,36.9l28.9-5.3l-8.2-8.2
	c6.7-6.5,16.7-10.5,26.7-10.5c20.4,0,36.9,16.5,36.9,36.9S70.8,86.7,50.4,86.7c-20.3,0-36.8-16.4-36.9-36.7L3.2,51.9
	C4.3,77,25,97,50.4,97c26.1,0,47.2-21.1,47.2-47.2S76.5,2.6,50.4,2.6z"/>
</svg>
