<svg xmlns="http://www.w3.org/2000/svg" xmlns:xlink="http://www.w3.org/1999/xlink" version="1.1" style="display:none">
	<defs>
	<g id="icon-like">
		<path d="M287.9,552.4l-0.3-0.3C76.8,347.2,15.5,269.6,2.3,191.1c-8-47.3,5.3-95.7,36.5-132.6C70.7,20.8,116.7,0,168.3,0
			c46.4,0,89.8,17.7,119.1,48.6C316.6,17.7,360,0,406.4,0C458,0,504,20.7,535.9,58.4c31.2,36.8,44.4,85.2,36.5,132.7
			c-6.1,41.2-25,78.9-65.1,130.1c-40.9,52.3-106.4,121.3-219,230.9L287.9,552.4z M168.3,1C117,1,71.3,21.7,39.6,59.2
			C8.6,95.8-4.7,143.9,3.3,190.9C16.4,269.2,77.6,346.6,287.9,551c112.4-109.3,177.8-178.2,218.6-230.4
			c40-51.1,58.8-88.7,64.9-129.7c7.9-47.3-5.3-95.3-36.2-131.9C503.5,21.6,457.7,1,406.4,1C360,1,316.8,18.7,287.7,49.7l-0.4,0.4
			l-0.4-0.4C257.8,18.7,214.6,1,168.3,1z M288.5,472.7l-0.4-0.4c-8.6-8.6-17-17-25.2-25.2c-74.5-74.3-133.4-133-169.4-185.9
			c-38.9-57.1-46.8-101.8-25.8-144.9C86.4,78.5,124.2,56,168.8,56c68.1,0,97.6,46.9,115.2,74.9c1.8,2.9,3.5,5.6,5.1,8
			c0.8-1.3,1.7-2.7,2.5-4.1C308.5,107.2,339.9,56,408.1,56c44.7,0,82.4,22.6,101.1,60.4c21,42.8,13.1,87.2-25.5,144.1
			c-35.8,52.7-94.4,111.3-168.5,185.5c-8.6,8.6-17.4,17.4-26.3,26.4L288.5,472.7z M168.8,57c-44.3,0-81.7,22.4-100.2,59.8
			C47.8,159.6,55.8,204,94.4,260.7c35.9,52.8,94.8,111.5,169.3,185.7c8.1,8.1,16.4,16.4,24.9,24.8c8.8-8.9,17.5-17.5,26-26
			c74.1-74.2,132.7-132.8,168.4-185.4c38.4-56.5,46.2-100.6,25.4-143.1C489.9,79.3,452.4,57,408.1,57c-67.7,0-98.9,50.9-115.7,78.3
			c-1,1.7-2,3.3-2.9,4.8l-0.4,0.7l-0.4-0.6c-1.7-2.6-3.6-5.5-5.5-8.6C265.7,103.6,236.4,57,168.8,57z"/>
	</g>
	
</defs>
</svg>
