<?xml version="1.0" encoding="utf-8"?>
<!-- Generator: Adobe Illustrator 18.1.0, SVG Export Plug-In . SVG Version: 6.00 Build 0)  -->
<svg version="1.1" id="Calque_1" xmlns="http://www.w3.org/2000/svg" xmlns:xlink="http://www.w3.org/1999/xlink" x="0px" y="0px"
	 viewBox="0 0 100 100" enable-background="new 0 0 100 100" xml:space="preserve" class="setting">
<g>
	<path fill="none" stroke="#000000" stroke-width="2" stroke-linejoin="round" stroke-miterlimit="10" d="M97.9,44.3v12.9l-7,2.5
		c-2.7,0.9-4.8,3-5.9,5.6c0,0,0,0,0,0c-1.1,2.6-1,5.6,0.2,8.1l3.2,6.7l-9.1,9.1l-6.7-3.2c-2.5-1.2-5.4-1.3-8-0.2c0,0,0,0,0,0
		c-2.6,1.1-4.7,3.2-5.6,5.9l-2.5,6.9H43.6l-2.5-7c-0.9-2.7-3-4.8-5.6-5.9c0,0,0,0,0,0c-2.6-1.1-5.6-1-8.1,0.2l-6.7,3.2L11.7,80
		l3.2-6.7c1.2-2.6,1.3-5.5,0.2-8.1c0,0,0,0,0,0c-1.1-2.6-3.2-4.6-5.9-5.6l-7-2.5V44.3l7-2.5c2.7-0.9,4.8-3,5.9-5.6c0,0,0,0,0,0
		c1.1-2.6,1-5.6-0.2-8.1l-3.2-6.7l9.1-9.1l6.7,3.2c2.6,1.2,5.5,1.3,8.1,0.2c0,0,0,0,0,0c2.6-1.1,4.6-3.2,5.6-5.9l2.5-7h12.9l2.5,7
		c0.9,2.7,3,4.8,5.6,5.9c0,0,0,0,0,0c2.6,1.1,5.6,1,8.1-0.2l6.7-3.2l9.1,9.1l-3.2,6.7C84,30.7,84,33.6,85,36.2c0,0,0,0,0,0
		c1.1,2.6,3.2,4.6,5.9,5.6L97.9,44.3z"/>
	<path fill="none" stroke="#000000" stroke-width="2" stroke-linejoin="round" stroke-miterlimit="10" d="M72.2,50.7
		c0-12.2-10-22.2-22.2-22.2c-12.2,0-22.2,10-22.2,22.2s10,22.2,22.2,22.2C62.3,72.9,72.2,63,72.2,50.7z"/>
</g>
</svg>
