<?xml version="1.0" encoding="utf-8"?>
<!-- Generator: Adobe Illustrator 17.1.0, SVG Export Plug-In . SVG Version: 6.00 Build 0)  -->
<!DOCTYPE svg PUBLIC "-//W3C//DTD SVG 1.1//EN" "http://www.w3.org/Graphics/SVG/1.1/DTD/svg11.dtd">
<svg version="1.1" id="Layer_1" xmlns="http://www.w3.org/2000/svg" xmlns:xlink="http://www.w3.org/1999/xlink" x="0px" y="0px"
	 viewBox="0 0 52.3 40" enable-background="new 0 0 52.3 40" xml:space="preserve">
<g>
	<g>
		<path d="M52.1,8.2c-0.1-0.1-1.2-2.1-3.5-4.1C46.3,2.1,42.8,0,38.2,0c-4.6,0-8.1,2.1-10.3,4.1c-0.7,0.6-1.3,1.2-1.7,1.8
			c-0.5-0.6-1.1-1.2-1.8-1.8C22.1,2.1,18.6,0,13.9,0S5.8,2.1,3.6,4.1c-2.2,2-3.3,4-3.4,4.1L0,9.2v29.9L3.6,40l0,0
			c0-0.1,1-1.8,2.8-3.3c1.8-1.6,4.3-3,7.6-3c3.4,0,6,1.5,7.8,3.2c0.9,0.8,1.6,1.6,2.1,2.2c0.2,0.3,0.4,0.6,0.5,0.7
			c0.1,0.1,0.1,0.2,0.1,0.2c0,0,0,0,0,0h0l3.3,0h0v0c0.1-0.1,1-1.8,2.8-3.3c1.8-1.6,4.3-3,7.6-3c3.4,0,6,1.5,7.9,3.2
			c0.9,0.8,1.6,1.6,2,2.2c0.2,0.3,0.4,0.6,0.5,0.7c0.1,0.1,0.1,0.1,0.1,0.2c0,0,0,0,0,0l3.6-1V9.2L52.1,8.2z M13.9,29.9L13.9,29.9
			c-4.5,0-7.9,2-10.1,4V9.7c0.4-0.6,1.2-1.8,2.5-2.9c1.8-1.5,4.3-3,7.6-3c3.4,0,6,1.5,7.8,3.2c0.9,0.8,1.6,1.6,2.1,2.2
			c0.2,0.2,0.3,0.4,0.4,0.5v24.1C22,31.9,18.5,29.9,13.9,29.9L13.9,29.9z M48.5,33.9c-2.3-2-5.7-4.1-10.3-4.1c-4.5,0-7.9,2-10.1,4
			V9.7c0.4-0.6,1.3-1.8,2.5-2.9c1.8-1.5,4.3-3,7.6-3c3.4,0,6,1.5,7.9,3.2c0.9,0.8,1.6,1.6,2,2.2c0.2,0.2,0.3,0.4,0.4,0.5V33.9z
			 M48.5,33.9"/>
	</g>
</g>
</svg>
