<?xml version="1.0" encoding="utf-8"?>
<!-- Generator: Adobe Illustrator 17.1.0, SVG Export Plug-In . SVG Version: 6.00 Build 0)  -->
<!DOCTYPE svg PUBLIC "-//W3C//DTD SVG 1.1//EN" "http://www.w3.org/Graphics/SVG/1.1/DTD/svg11.dtd">
<svg version="1.1" id="Layer_1" xmlns="http://www.w3.org/2000/svg" xmlns:xlink="http://www.w3.org/1999/xlink" x="0px" y="0px"
	 viewBox="0 0 60.8 40" enable-background="new 0 0 60.8 40" xml:space="preserve">
<path d="M56,9.7H19.5c-2.6,0-4.8-2.1-4.8-4.8V4.8c0-2.6,2.1-4.8,4.8-4.8H56c2.6,0,4.8,2.1,4.8,4.8v0.1C60.8,7.5,58.7,9.7,56,9.7z"/>
<path d="M56,24.8H19.5c-2.6,0-4.8-2.1-4.8-4.8V20c0-2.6,2.1-4.8,4.8-4.8H56c2.6,0,4.8,2.1,4.8,4.8V20C60.8,22.7,58.7,24.8,56,24.8z"
	/>
<path d="M56,40H19.5c-2.6,0-4.8-2.1-4.8-4.8v-0.1c0-2.6,2.1-4.8,4.8-4.8H56c2.6,0,4.8,2.1,4.8,4.8v0.1C60.8,37.9,58.7,40,56,40z"/>
<path d="M4.3,9.7L4.3,9.7C1.9,9.7,0,7.8,0,5.4V4.3C0,1.9,1.9,0,4.3,0h0.1c2.4,0,4.3,1.9,4.3,4.3v1.2C8.6,7.8,6.7,9.7,4.3,9.7z"/>
<path d="M4.3,24.8L4.3,24.8c-2.4,0-4.3-1.9-4.3-4.3v-1.2c0-2.4,1.9-4.3,4.3-4.3h0.1c2.4,0,4.3,1.9,4.3,4.3v1.2
	C8.6,22.9,6.7,24.8,4.3,24.8z"/>
<path d="M4.3,40L4.3,40C1.9,40,0,38.1,0,35.7v-1.2c0-2.4,1.9-4.3,4.3-4.3h0.1c2.4,0,4.3,1.9,4.3,4.3v1.2C8.6,38.1,6.7,40,4.3,40z"/>
</svg>
