<?xml version="1.0" encoding="utf-8"?>
<!-- Generator: Adobe Illustrator 17.1.0, SVG Export Plug-In . SVG Version: 6.00 Build 0)  -->
<!DOCTYPE svg PUBLIC "-//W3C//DTD SVG 1.1//EN" "http://www.w3.org/Graphics/SVG/1.1/DTD/svg11.dtd">
<svg version="1.1" id="Layer_1" xmlns="http://www.w3.org/2000/svg" xmlns:xlink="http://www.w3.org/1999/xlink" x="0px" y="0px"
	 viewBox="0 0 41 41" enable-background="new 0 0 41 41" xml:space="preserve">
<g>
	<path fill="#010202" d="M25,38.9H16c-2,0-3.2-2.3-3.2-3.9V15.5c0-1.1,0.4-2.1,0.5-2.2c0,0,3.6-7.5,3.9-8.2c0.2-0.4,0-0.7,0-0.7
		c-0.4-0.4-0.5-0.9-0.5-1.3c0.1-0.6,0.5-0.9,0.6-1l0.1-0.1l0.2,0c0,0,1.4,0,2.9,0c1.6,0,3,0,3,0l0.2,0l0.1,0.1c0,0,0.5,0.4,0.6,1
		c0.1,0.4-0.1,0.9-0.5,1.3c0,0-0.2,0.3,0,0.7c0.3,0.7,3.9,8.2,3.9,8.2c0,0.1,0.5,1,0.5,2.2V35C28.2,36.6,27,38.9,25,38.9z
		 M14.2,13.8c0,0-0.4,0.8-0.4,1.8V35c0,1.2,0.9,2.9,2.2,2.9H25c1.3,0,2.2-1.8,2.2-2.9V15.5c0-0.9-0.4-1.8-0.4-1.8
		c0,0-3.5-7.4-3.9-8.2c-0.4-0.8-0.1-1.5,0.2-1.8c0.1-0.1,0.3-0.4,0.3-0.5c0-0.1,0-0.1-0.1-0.2c-0.5,0-2,0-3.3,0c-1,0-1.9,0-2.2,0
		c0,0-0.1,0.1-0.1,0.2c0,0.2,0.1,0.4,0.2,0.5c0.2,0.3,0.6,1,0.2,1.8C17.7,6.3,14.2,13.8,14.2,13.8L14.2,13.8z"/>
</g>
<g>
	<path fill="#010202" d="M20.5,41C15,41,9.9,38.9,6,35c-8-8-8-21,0-29c3.9-3.9,9-6,14.5-6S31.1,2.1,35,6c8,8,8,21,0,29
		C31.1,38.9,26,41,20.5,41z M20.5,1C15.3,1,10.4,3,6.7,6.7c-7.6,7.6-7.6,20,0,27.6C10.4,38,15.3,40,20.5,40c5.2,0,10.1-2,13.8-5.7
		c7.6-7.6,7.6-20,0-27.6C30.6,3,25.7,1,20.5,1z"/>
</g>
<g>
	<rect x="20" y="0.5" transform="matrix(0.7071 0.7071 -0.7071 0.7071 20.4972 -8.4846)" fill="#010202" width="1" height="40"/>
</g>
</svg>
