<?xml version="1.0" encoding="utf-8"?>
<!-- Generator: Adobe Illustrator 17.1.0, SVG Export Plug-In . SVG Version: 6.00 Build 0)  -->
<!DOCTYPE svg PUBLIC "-//W3C//DTD SVG 1.1//EN" "http://www.w3.org/Graphics/SVG/1.1/DTD/svg11.dtd">
<svg version="1.1" id="Layer_1" xmlns="http://www.w3.org/2000/svg" xmlns:xlink="http://www.w3.org/1999/xlink" x="0px" y="0px"
	 viewBox="0 0 45.4 39.9" enable-background="new 0 0 45.4 39.9" xml:space="preserve">
<g>
	<path fill="#010202" d="M45.2,22.4c0.4-2,0.3-4-0.6-6c-2.4-5.7-9.4-6.8-14.6-4.9c-0.2,0.1-0.4,0.2-0.5,0.4c-4.2-2.4-6-7.3-10-10
		c-4.3-3-9.6-2.3-14,0.4C3.6,3.5,2.4,5,1.6,6.7C1.6,6.8,1.5,6.8,1.5,6.9c-1.9,6.2-2.2,13.5,0.4,19.5c2.8,6.6,8.5,10.3,15.2,12.3
		c12.1,3.6,29.9-0.6,28.1-16.3C45.2,22.4,45.2,22.4,45.2,22.4z M13.2,2.1c7.5-0.5,9.6,9.3,16.1,11.2c0.1,0,0.1,0,0.2,0
		c0.2,0.4,0.7,0.7,1.3,0.5c6-2.2,13.5,0.9,12.1,8.3c-1.2,5.8-7.8,8.1-13,8.4c-8.5,0.6-18.4-2.4-23.4-9.6C1.1,13.4,2.3,2.9,13.2,2.1z
		 M16.6,36.5c-6-1.7-11-5.6-13.3-11.5c-1-2.5-1.3-5.2-1.4-7.8c1.3,3.5,3.4,6.8,5.7,9c7.4,7.4,22.7,9.4,31.6,4.3
		c1.5-0.8,2.8-2,3.8-3.3C40.3,37.8,26.6,39.4,16.6,36.5z"/>
	<path fill="#010202" d="M20.1,13.7c-0.4-2.3-2.1-4.1-4-5.3c-1.1-0.7-2.6-1.4-4-1.3c0-0.3-0.2-0.6-0.5-0.4c-3.1,1.2-4.9,3.9-3.6,7.1
		c1,2.8,3.9,5.1,6.8,5.5C18,19.7,20.7,17,20.1,13.7z M14.3,17.3c-2-0.6-3.7-2.2-4.6-4c-0.9-1.8-0.3-3.5,0.9-4.8c0,0,0.1,0,0.1,0
		c3.2,0.2,7.2,2.1,7.6,5.7C18.6,16.8,16.4,17.8,14.3,17.3z"/>
	<path fill="#010202" d="M15,12c-0.6-0.7-1.8-1.2-2.7-1.4c-0.6-0.1-1.1,0.6-0.7,1c-0.1,0.9-0.2,1.8,0.2,2.7c0.5,1.2,2.1,1.3,3.2,1.3
		c0.3,0,0.6-0.2,0.7-0.5C15.8,14,15.8,12.9,15,12z M12.9,13.7c-0.2-0.4-0.2-0.9-0.2-1.4c0.4,0.2,0.8,0.3,1.1,0.5
		c0.5,0.3,0.6,0.9,0.6,1.5C13.8,14.3,13.1,14.2,12.9,13.7z"/>
</g>
</svg>
