<?xml version="1.0" encoding="utf-8"?>
<!-- Generator: Adobe Illustrator 17.1.0, SVG Export Plug-In . SVG Version: 6.00 Build 0)  -->
<!DOCTYPE svg PUBLIC "-//W3C//DTD SVG 1.1//EN" "http://www.w3.org/Graphics/SVG/1.1/DTD/svg11.dtd">
<svg version="1.1" id="Layer_1" xmlns="http://www.w3.org/2000/svg" xmlns:xlink="http://www.w3.org/1999/xlink" x="0px" y="0px"
	 viewBox="0 0 28.2 40" enable-background="new 0 0 28.2 40" xml:space="preserve">
<g>
	<path fill="none" d="M3.5,35.4c0,0.6,0.5,1,1.1,1h18.8c0.6,0,1.2-0.5,1.2-1V20H3.5V35.4z"/>
	<path fill="none" d="M23.5,3.5H4.6C4,3.5,3.5,4,3.5,4.6v13.1h21.2V4.6C24.7,4,24.1,3.5,23.5,3.5z"/>
	<path d="M23.5,0H4.6C2.1,0,0,2.1,0,4.6v30.9C0,38,2.1,40,4.6,40h18.8c2.6,0,4.8-2.1,4.8-4.6V4.6C28.2,2.1,26,0,23.5,0z M24.7,35.4
		c0,0.5-0.6,1-1.2,1H4.6c-0.6,0-1.1-0.5-1.1-1V20h21.2V35.4z M24.7,17.6H3.5V4.6C3.5,4,4,3.5,4.6,3.5h18.8c0.6,0,1.2,0.5,1.2,1.1
		V17.6z"/>
</g>
<g>
	<path d="M18.7,34.1H9.3c-1.7,0-2.9-1.8-2.9-3.5s1.3-3.5,2.9-3.5h9.4c1.7,0,2.9,1.8,2.9,3.5S20.4,34.1,18.7,34.1z M9.3,28.1
		c-0.9,0-1.8,1.3-1.8,2.5s0.9,2.5,1.8,2.5h9.4c0.9,0,1.8-1.3,1.8-2.5s-0.9-2.5-1.8-2.5H9.3z"/>
</g>
<rect x="6.3" y="21.8" width="15.3" height="1"/>
</svg>
