<?xml version="1.0" encoding="utf-8"?>
<!-- Generator: Adobe Illustrator 17.1.0, SVG Export Plug-In . SVG Version: 6.00 Build 0)  -->
<!DOCTYPE svg PUBLIC "-//W3C//DTD SVG 1.1//EN" "http://www.w3.org/Graphics/SVG/1.1/DTD/svg11.dtd">
<svg version="1.1" id="Layer_1" xmlns="http://www.w3.org/2000/svg" xmlns:xlink="http://www.w3.org/1999/xlink" x="0px" y="0px"
	 viewBox="0 0 57.7 40.2" enable-background="new 0 0 57.7 40.2" xml:space="preserve">
<path d="M49.7,8.8H16.3c-2.4,0-4.4-2-4.4-4.4V4.4c0-2.4,2-4.4,4.4-4.4h33.4c2.4,0,4.4,2,4.4,4.4v0.1C54.1,6.9,52.1,8.8,49.7,8.8z"/>
<path d="M49.7,22.4H16.3c-2.4,0-4.4-2-4.4-4.4v-0.1c0-2.4,2-4.4,4.4-4.4h33.4c2.4,0,4.4,2,4.4,4.4V18C54.1,20.4,52.1,22.4,49.7,22.4
	z"/>
<path d="M4,8.8L4,8.8C1.7,8.8,0,7.1,0,5V3.9C0,1.7,1.7,0,3.9,0H4c2.2,0,3.9,1.7,3.9,3.9V5C7.9,7.1,6.1,8.8,4,8.8z"/>
<path d="M4,22.4L4,22.4c-2.2,0-4-1.7-4-3.9v-1.1c0-2.2,1.7-3.9,3.9-3.9H4c2.2,0,3.9,1.7,3.9,3.9v1.1C7.9,20.7,6.1,22.4,4,22.4z"/>
<path d="M4,36.6L4,36.6c-2.2,0-4-1.7-4-3.9v-1.1c0-2.2,1.7-3.9,3.9-3.9H4c2.2,0,3.9,1.7,3.9,3.9v1.1C7.9,34.9,6.1,36.6,4,36.6z"/>
<g>
	<polygon points="53.7,32.2 53.7,28.2 49.7,28.2 49.7,32.2 45.7,32.2 45.7,36.2 49.7,36.2 49.7,40.2 53.7,40.2 53.7,36.2 57.7,36.2 
		57.7,32.2 	"/>
	<g>
		<path d="M40.4,34.8c0-2.8,1-4.7,2.7-7.1H16.2c-2.2,0-4.1,1.8-4.1,4.1v0.1c0,2.2,1.8,4.1,4.1,4.1h24.4C40.5,36,40.4,35.3,40.4,34.8
			z"/>
	</g>
</g>
</svg>
