<?xml version="1.0" encoding="utf-8"?>
<!-- Generator: Adobe Illustrator 17.1.0, SVG Export Plug-In . SVG Version: 6.00 Build 0)  -->
<!DOCTYPE svg PUBLIC "-//W3C//DTD SVG 1.1//EN" "http://www.w3.org/Graphics/SVG/1.1/DTD/svg11.dtd">
<svg version="1.1" id="Layer_1" xmlns="http://www.w3.org/2000/svg" xmlns:xlink="http://www.w3.org/1999/xlink" x="0px" y="0px"
	 viewBox="0 0 52.1 40" enable-background="new 0 0 52.1 40" xml:space="preserve">
<g>
	<g>
		<path fill="#010202" d="M0.4,14.6c0.6,1.1,1.9,1.3,3,1.3c0.2,0,0.4,0,0.7,0C2.7,19.1,2,22.5,2,25.7c0,4.2,1,7.4,3.2,9.5
			c3.1,3.1,8.1,3.7,14.1,3.8c0.2,0.1,0.3,0.1,0.5,0.2c1.8,0.7,4.2,0.8,6.3,0.8c2.1,0,4.5-0.1,6.3-0.8c0.2-0.1,0.3-0.1,0.5-0.2
			c5.9-0.1,10.9-0.7,14.1-3.8c2.1-2.1,3.2-5.2,3.2-9.5c0-3.2-0.7-6.6-2.1-9.8c1.3,0.1,2.9,0,3.7-1.3c1.1-1.7-0.4-4.1-2.2-6.9
			c-1-1.6-2-3.2-2.4-4.5c-0.5-1.5-1.6-2.6-3.2-3c-2.1-0.6-4.5-0.2-6.2,0.3c-1.6,0.4-3.1,1.1-4.1,1.7c-2.5-0.8-5-1.3-7.6-1.3
			c-2.6,0-5.1,0.4-7.6,1.3c-1-0.6-2.5-1.3-4.1-1.7c-1.7-0.5-4.1-0.9-6.2-0.3c-1.7,0.5-2.8,1.5-3.2,3C4.5,4.6,3.5,6.2,2.5,7.8
			C0.8,10.5-0.7,12.9,0.4,14.6z M8.8,2.7c1.2-0.3,3-0.2,4.9,0.3c1.8,0.5,3.2,1.2,3.7,1.6L18,5.1l1-0.4c2.3-0.8,4.6-1.2,7-1.2
			c2.4,0,4.7,0.4,7,1.2l1,0.4l0.6-0.5c0.5-0.4,2-1.2,3.7-1.6c1.9-0.5,3.7-0.6,4.9-0.3C44.4,3,44.7,3.6,44.8,4
			c0.5,1.6,1.6,3.4,2.7,5.1c0.7,1,1.3,2,1.7,2.9c0.4,0.9,0.5,1.2,0.5,1.4c-0.1,0.1-0.6,0.2-1.6,0.1c-0.6-0.1-1.1-0.1-1.7-0.3l-0.1,0
			c-5.7-1.3-9.9-5.8-10-5.9l-0.9,0.8l-0.9,0.8c0.2,0.2,3.2,3.4,7.7,5.4c0.9,0.4,1.9,0.8,3,1.1c1.6,3.3,2.5,6.9,2.5,10.3
			c0,3.6-0.8,6.1-2.5,7.7c-2.1,2.1-5.6,2.8-9.8,3c0.1-0.4,0.2-0.8,0.3-1.2h0c0-0.2,0.2-4.4-2.8-10C32.2,24.1,31.9,23,32,22
			c0.6,0.5,1.4,0.8,2.3,0.8l0,0c0.3,0,0.6,0,0.9-0.1c2-0.4,3.2-2.3,2.8-4.1C37.6,17,36.2,16,34.5,16c-0.3,0-0.6,0-0.9,0.1
			c-0.6,0.1-1.1,0.4-1.6,0.7l0,0c-0.1,0.1-1.3,0.9-2,2.6c-0.7,1.5-1.1,3.9,0.6,7.1c0.3,0.5,0.5,0.9,0.7,1.4c-1.6-1-3.4-1.6-5.3-1.6
			c-1.9,0-3.7,0.5-5.3,1.6c0.2-0.5,0.5-1,0.7-1.3c1.7-3.2,1.3-5.6,0.6-7.1c-0.7-1.6-1.9-2.5-2-2.6l0,0c-0.4-0.3-1-0.6-1.6-0.7
			C18.2,16,17.9,16,17.6,16c-1.7,0-3.1,1.1-3.4,2.6c-0.4,1.8,0.8,3.6,2.8,4.1c0.3,0.1,0.6,0.1,0.9,0.1c0.9,0,1.7-0.3,2.3-0.8
			c0.1,1-0.2,2.2-0.9,3.4c-2.1,3.8-2.6,7-2.7,8.7c0,0.3-0.1,0.5-0.1,0.8c0,0.5,0.1,1.1,0.3,1.7c-4.3-0.2-7.7-0.9-9.8-3
			c-1.7-1.7-2.5-4.2-2.5-7.7c0-3.4,0.9-7,2.5-10.3c1.1-0.3,2.1-0.6,3-1.1c4.5-2,7.5-5.3,7.7-5.4l-0.9-0.8l-0.9-0.8
			c0,0-4.3,4.6-10,5.9h0l0,0c-0.6,0.1-1.2,0.2-1.7,0.3c-1.1,0.1-1.5,0-1.6-0.1c0-0.1,0-0.5,0.5-1.4c0.4-0.8,1-1.8,1.7-2.9
			C5.7,7.4,6.8,5.6,7.3,4C7.4,3.6,7.7,3,8.8,2.7z M26.1,37.5c-3.4,0-5.2-0.3-6.2-1c-0.6-0.4-0.8-0.9-0.9-1.5c0-0.1,0-0.4,0-0.9
			c0.2-1.2,0.9-2.5,2-3.5c1.4-1.3,3.2-2,5.1-2c1.8,0,3.6,0.7,5.1,2c1.3,1.2,2,2.7,2,4c0,0.7-0.2,1.3-0.9,1.8
			C31.3,37.2,29.5,37.5,26.1,37.5z M34.2,18.5c0.1,0,0.2,0,0.3,0c0.5,0,0.9,0.3,1,0.6c0.1,0.5-0.3,1-0.9,1.1c-0.1,0-0.2,0-0.3,0l0,0
			c-0.5,0-0.9-0.3-1-0.6C33.2,19.2,33.6,18.6,34.2,18.5z M18.9,19.6c-0.1,0.4-0.5,0.6-1,0.6c-0.1,0-0.2,0-0.3,0
			c-0.6-0.1-1-0.7-0.9-1.1c0.1-0.4,0.5-0.6,1-0.6c0.1,0,0.2,0,0.3,0C18.5,18.6,19,19.2,18.9,19.6z"/>
		<path fill="#010202" d="M21.1,35.7c0,0,4.4,0.2,4.1-2.4C24.9,30.6,20.6,31.4,21.1,35.7z"/>
		<path fill="#010202" d="M27,33.3c-0.3,2.6,4.1,2.4,4.1,2.4C31.6,31.4,27.2,30.6,27,33.3z"/>
	</g>
</g>
</svg>
