<?xml version="1.0" encoding="utf-8"?>
<!-- Generator: Adobe Illustrator 17.1.0, SVG Export Plug-In . SVG Version: 6.00 Build 0)  -->
<!DOCTYPE svg PUBLIC "-//W3C//DTD SVG 1.1//EN" "http://www.w3.org/Graphics/SVG/1.1/DTD/svg11.dtd">
<svg version="1.1" id="Layer_1" xmlns="http://www.w3.org/2000/svg" xmlns:xlink="http://www.w3.org/1999/xlink" x="0px" y="0px"
	 viewBox="0 0 41.3 40" enable-background="new 0 0 41.3 40" xml:space="preserve">
<g>
	<path id="star_5_" fill="#010202" d="M41.1,14.9c-0.4-1-1.3-1.8-2.4-1.9L28,11.4l-4.7-9.7c-0.5-1-1.5-1.7-2.7-1.7
		c-1.2,0-2.2,0.7-2.7,1.7l-4.7,9.7L2.5,13c-1.1,0.2-2,0.9-2.4,1.9c-0.4,1-0.1,2.2,0.7,2.9l7.9,7.9L6.9,36.6
		c-0.2,1.1,0.3,2.2,1.2,2.8C8.6,39.8,9.2,40,9.8,40c0.5,0,1-0.1,1.4-0.4l9.4-5l9.4,5c0.4,0.2,0.9,0.4,1.4,0.4c0.6,0,1.2-0.2,1.7-0.5
		c0.9-0.6,1.4-1.7,1.2-2.8l-1.8-10.9l7.9-7.9C41.2,17.1,41.5,15.9,41.1,14.9z M30.4,23.7c-0.7,0.7-1,1.6-0.8,2.5l1.8,10.9l-9.4-5
		c-0.4-0.2-0.9-0.4-1.4-0.4c-0.5,0-1,0.1-1.4,0.4l-9.4,5l1.8-10.9c0.2-0.9-0.1-1.8-0.8-2.5L3,15.8l10.7-1.6c1-0.1,1.8-0.8,2.2-1.6
		l4.7-9.7l4.7,9.7c0.4,0.9,1.3,1.5,2.2,1.6l10.7,1.6L30.4,23.7z"/>
</g>
</svg>
