<?xml version="1.0" encoding="utf-8"?>
<!-- Generator: Adobe Illustrator 17.1.0, SVG Export Plug-In . SVG Version: 6.00 Build 0)  -->
<!DOCTYPE svg PUBLIC "-//W3C//DTD SVG 1.1//EN" "http://www.w3.org/Graphics/SVG/1.1/DTD/svg11.dtd">
<svg version="1.1" id="Layer_1" xmlns="http://www.w3.org/2000/svg" xmlns:xlink="http://www.w3.org/1999/xlink" x="0px" y="0px"
	 viewBox="0 0 38.7 40" enable-background="new 0 0 38.7 40" xml:space="preserve">
<g>
	<path id="magnifier-3-icon_4_" d="M30.2,25.9c-1.5,2.2-3.5,4.1-5.7,5.6l7.4,7.4c1.5,1.5,4,1.5,5.6,0l0.1-0.1c1.5-1.5,1.5-4,0-5.6
		L30.2,25.9z"/>
</g>
<g>
	<path d="M15.7,31.5C7.1,31.5,0,24.4,0,15.7S7.1,0,15.7,0s15.7,7.1,15.7,15.7S24.4,31.5,15.7,31.5z M15.7,1.8C8,1.8,1.8,8,1.8,15.7
		S8,29.7,15.7,29.7s13.9-6.3,13.9-13.9S23.4,1.8,15.7,1.8z"/>
</g>
</svg>
